<svg xmlns="http://www.w3.org/2000/svg" viewBox="0 0 64 64" role="img" aria-label="Aperture">
  <defs>
    <linearGradient id="ap" x1="6" y1="6" x2="58" y2="58" gradientUnits="userSpaceOnUse">
      <stop offset="0" stop-color="#14b8a6"/>
      <stop offset="0.55" stop-color="#1c7ed6"/>
      <stop offset="1" stop-color="#2f5bea"/>
    </linearGradient>
  </defs>
  <circle cx="32" cy="32" r="29" fill="none" stroke="url(#ap)" stroke-width="2.5" opacity="0.45"/>
  <g fill="url(#ap)">
    <g transform="rotate(0 32 32)"><path d="M32 7 L54.2 19.5 L38.6 24.4 Z" opacity="0.95"/></g>
    <g transform="rotate(60 32 32)"><path d="M32 7 L54.2 19.5 L38.6 24.4 Z" opacity="0.78"/></g>
    <g transform="rotate(120 32 32)"><path d="M32 7 L54.2 19.5 L38.6 24.4 Z" opacity="0.95"/></g>
    <g transform="rotate(180 32 32)"><path d="M32 7 L54.2 19.5 L38.6 24.4 Z" opacity="0.78"/></g>
    <g transform="rotate(240 32 32)"><path d="M32 7 L54.2 19.5 L38.6 24.4 Z" opacity="0.95"/></g>
    <g transform="rotate(300 32 32)"><path d="M32 7 L54.2 19.5 L38.6 24.4 Z" opacity="0.78"/></g>
  </g>
</svg>
