<svg xmlns="http://www.w3.org/2000/svg" viewBox="0 0 1200 630" width="1200" height="630" role="img" aria-label="Aperture">
  <defs>
    <linearGradient id="ap" x1="0" y1="0" x2="1" y2="1">
      <stop offset="0" stop-color="#14b8a6"/>
      <stop offset="0.55" stop-color="#1c7ed6"/>
      <stop offset="1" stop-color="#2f5bea"/>
    </linearGradient>
    <radialGradient id="bg" cx="72%" cy="42%" r="70%">
      <stop offset="0" stop-color="#0d1622"/>
      <stop offset="1" stop-color="#06090e"/>
    </radialGradient>
    <symbol id="iris" viewBox="0 0 64 64">
      <circle cx="32" cy="32" r="29" fill="none" stroke="url(#ap)" stroke-width="2.5" opacity="0.5"/>
      <g fill="url(#ap)">
        <g transform="rotate(0 32 32)"><path d="M32 7 L54.2 19.5 L38.6 24.4 Z" opacity="0.95"/></g>
        <g transform="rotate(60 32 32)"><path d="M32 7 L54.2 19.5 L38.6 24.4 Z" opacity="0.78"/></g>
        <g transform="rotate(120 32 32)"><path d="M32 7 L54.2 19.5 L38.6 24.4 Z" opacity="0.95"/></g>
        <g transform="rotate(180 32 32)"><path d="M32 7 L54.2 19.5 L38.6 24.4 Z" opacity="0.78"/></g>
        <g transform="rotate(240 32 32)"><path d="M32 7 L54.2 19.5 L38.6 24.4 Z" opacity="0.95"/></g>
        <g transform="rotate(300 32 32)"><path d="M32 7 L54.2 19.5 L38.6 24.4 Z" opacity="0.78"/></g>
      </g>
    </symbol>
  </defs>

  <rect width="1200" height="630" fill="url(#bg)"/>

  <g transform="translate(910 315)" fill="none" stroke="#1c7ed6" stroke-width="1.2" opacity="0.28">
    <circle r="285"/>
    <ellipse rx="285" ry="96"/>
    <ellipse rx="285" ry="190"/>
    <ellipse rx="96" ry="285"/>
    <ellipse rx="190" ry="285"/>
    <line x1="-285" y1="0" x2="285" y2="0"/>
  </g>
  <g transform="translate(910 315)">
    <circle cx="120" cy="-150" r="6" fill="#2ec27e"/>
    <circle cx="-180" cy="60" r="6" fill="#f2555a"/>
    <circle cx="40" cy="170" r="6" fill="#e0a458"/>
    <circle cx="200" cy="40" r="5" fill="#3fb7ff"/>
    <circle cx="-90" cy="-110" r="5" fill="#3fb7ff"/>
    <circle cx="-30" cy="-30" r="5" fill="#2ec27e"/>
  </g>

  <use href="#iris" x="96" y="120" width="132" height="132"/>
  <text x="98" y="400" font-family="'SF Mono','JetBrains Mono',Menlo,monospace" font-size="104" font-weight="700" letter-spacing="14" fill="#f4f7fb">APERTURE</text>
  <text x="104" y="452" font-family="-apple-system,'Segoe UI',Roboto,sans-serif" font-size="30" fill="#aeb9c7">Real-time global intelligence dashboard</text>
  <text x="104" y="500" font-family="'SF Mono','JetBrains Mono',Menlo,monospace" font-size="20" letter-spacing="3" fill="#5f6b7c">GEOPOLITICS · MARKETS · ENERGY · OSINT</text>

  <text x="98" y="582" font-family="-apple-system,'Segoe UI',Roboto,sans-serif" font-size="18" fill="#46505f">Open source · AGPL-3.0</text>
</svg>
